# xmcd
#
# Track frame offsets: 
#        150
#        10051
#        22487
#        33427
#        44410
#        52572
#        65023
#        75371
#        86168
#        97392
#        109816
#        121840
#        134474
#        142154
#        151972
#        163938
#        174107
#        182887
#        192156
#        204009
#        213363
#        224459
#        234580
#        245739
#
# Disc length: 3408 seconds
#
# Revision: 1
# Processed by: cddbd v1.5.2PL0 Copyright (c) Steve Scherf et al.
# Submitted via: ExactAudioCopy v0.99pb4
#
DISCID=580d4e18
DTITLE=Johnny Cash - I Walk The Line - The Essential Collection
DYEAR=1900
DGENRE=Country
TTITLE0=Ballad Of A Teenaage Queen
TTITLE1=I Walk The Line
TTITLE2=Cry Cry Cry
TTITLE3=Ways Of A Woman In Love
TTITLE4=Guess Things Happen That Way
TTITLE5=Folsom Prison Blues
TTITLE6=There You Go
TTITLE7=Train Of Love
TTITLE8=Don´t Make Me Go
TTITLE9=Give My Love To Rose
TTITLE10=Home Of The Blues
TTITLE11=Next In Line
TTITLE12=Come On Stranger
TTITLE13=Just About Time
TTITLE14=Nearest Thing To Heaven
TTITLE15=Goodbye Little Darling
TTITLE16=Katy Too
TTITLE17=Luther´s Boogie
TTITLE18=Thanks A Lot
TTITLE19=Down The Street To 301
TTITLE20=I Love You Because
TTITLE21=Straight A´s In Love
TTITLE22=Oh Lonesome Me
TTITLE23=Get Rhythm
EXTD=Rip By Feenix
EXTT0=
EXTT1=
EXTT2=
EXTT3=
EXTT4=
EXTT5=
EXTT6=
EXTT7=
EXTT8=
EXTT9=
EXTT10=
EXTT11=
EXTT12=
EXTT13=
EXTT14=
EXTT15=
EXTT16=
EXTT17=
EXTT18=
EXTT19=
EXTT20=
EXTT21=
EXTT22=
EXTT23=
PLAYORDER=
